<?xml version="1.0" standalone="no"?>
<!DOCTYPE svg PUBLIC "-//W3C//DTD SVG 20010904//EN"
 "http://www.w3.org/TR/2001/REC-SVG-20010904/DTD/svg10.dtd">
<svg version="1.0" xmlns="http://www.w3.org/2000/svg"
 width="55.000000pt" height="55.000000pt" viewBox="0 0 292.000000 292.000000"
 preserveAspectRatio="xMidYMid meet">

<g transform="translate(0.000000,292.000000) scale(0.100000,-0.100000)"
fill="#FF0000" stroke="none">
<path d="M0 1460 l0 -1460 1458 2 1457 3 3 1458 2 1457 -1460 0 -1460 0 0
-1460z m1541 804 c56 -25 75 -45 63 -66 -8 -12 -35 -6 -101 23 l-52 22 -58
-29 c-73 -37 -298 -156 -381 -201 -55 -30 -63 -38 -60 -61 3 -23 30 -41 238
-151 170 -91 245 -125 270 -125 22 0 57 12 93 33 l58 33 -63 71 c-119 135
-121 138 -104 155 14 14 18 13 42 -9 14 -13 58 -61 97 -106 39 -46 74 -83 79
-83 22 0 282 148 296 168 14 21 14 25 -4 42 -10 10 -85 53 -166 96 -104 55
-148 83 -148 95 0 10 5 21 10 24 11 7 293 -136 337 -171 21 -17 27 -30 27 -63
1 -40 2 -41 34 -41 18 0 46 -7 62 -15 62 -32 60 -19 60 -482 l0 -423 25 0 c33
0 42 -21 35 -85 -7 -63 -32 -102 -81 -128 -32 -16 -81 -17 -706 -15 l-672 3
-32 30 c-39 37 -59 82 -59 133 0 43 14 62 47 62 l23 0 0 423 c0 374 2 425 16
446 19 26 71 51 109 51 22 0 25 4 25 34 0 22 8 44 23 60 12 13 99 65 192 114
356 188 330 179 426 136z"/>
<path d="M845 1863 c-45 -11 -45 -15 -45 -450 l0 -413 660 0 660 0 0 414 c0
451 2 438 -56 452 -48 12 -161 -16 -178 -45 -4 -5 31 -10 81 -10 58 -1 89 -5
95 -13 4 -7 8 -173 8 -369 0 -289 -3 -359 -14 -368 -9 -8 -149 -10 -502 -9
-481 3 -489 3 -489 23 0 20 8 20 473 23 l472 2 0 330 0 330 -94 0 -93 0 -5
-74 c-6 -90 -37 -149 -97 -186 -48 -29 -51 -48 -16 -105 27 -44 32 -92 12
-119 -7 -9 -31 -20 -54 -23 -35 -5 -45 -2 -67 20 -34 34 -33 55 5 123 17 30
29 57 27 59 -2 3 -20 0 -39 -6 -19 -5 -77 -10 -129 -10 -160 1 -275 44 -327
122 -21 32 -27 55 -31 120 l-5 79 -98 0 -99 0 0 -330 0 -329 58 -3 c49 -3 57
-6 57 -23 0 -18 -7 -20 -80 -20 l-80 0 0 375 0 375 100 5 100 5 -45 22 c-46
22 -129 36 -165 26z m463 -575 c8 -8 9 -15 1 -25 -17 -20 -322 -19 -339 2 -6
8 -9 19 -5 25 9 15 327 14 343 -2z m151 -87 c8 -5 11 -16 8 -25 -6 -14 -36
-16 -246 -16 -241 0 -260 3 -247 35 4 13 44 15 238 15 128 0 239 -4 247 -9z"/>
<path d="M1150 1705 c0 -107 44 -160 162 -196 58 -18 87 -21 171 -17 144 6
147 9 147 114 l0 85 -68 -36 c-97 -50 -116 -48 -276 36 l-136 70 0 -56z"/>
<path d="M1717 1735 l-37 -26 0 -84 c0 -47 4 -85 8 -85 11 0 46 39 60 65 14
27 27 155 15 155 -4 0 -25 -11 -46 -25z"/>
<path d="M1637 1349 c-15 -20 -15 -25 -3 -38 16 -16 46 -8 46 12 0 7 -6 21
-13 32 -13 17 -15 17 -30 -6z"/>
<path d="M736 913 c11 -47 24 -64 59 -79 51 -21 1279 -21 1330 1 35 14 55 46
55 86 0 18 -10 19 -260 19 l-261 0 -38 -40 c-37 -39 -39 -40 -112 -41 -166 -2
-201 6 -225 52 l-15 29 -269 0 -270 0 6 -27z"/>
<path d="M1340 925 c18 -21 208 -21 236 0 17 13 5 14 -115 15 -117 0 -132 -2
-121 -15z"/>
</g>
</svg>
