<?xml version="1.0" standalone="no"?>
<!DOCTYPE svg PUBLIC "-//W3C//DTD SVG 20010904//EN"
 "http://www.w3.org/TR/2001/REC-SVG-20010904/DTD/svg10.dtd">
<svg version="1.0" xmlns="http://www.w3.org/2000/svg"
 width="48.000000pt" height="48.000000pt" viewBox="0 0 48.000000 48.000000"
 preserveAspectRatio="xMidYMid meet">

<g transform="translate(0.000000,48.000000) scale(0.100000,-0.100000)"
fill="#000000" stroke="none">
<path d="M198 298 c-15 -15 -18 -23 -9 -26 7 -2 18 1 24 7 16 16 37 13 37 -5
0 -9 -13 -33 -30 -54 -16 -21 -30 -43 -30 -49 0 -7 20 -11 50 -11 38 0 50 4
50 15 0 10 -10 15 -31 15 l-31 0 26 31 c31 36 34 74 7 89 -28 15 -38 13 -63
-12z"/>
</g>
</svg>
