<?xml version="1.0" standalone="no"?>
<!DOCTYPE svg PUBLIC "-//W3C//DTD SVG 20010904//EN"
 "http://www.w3.org/TR/2001/REC-SVG-20010904/DTD/svg10.dtd">
<svg version="1.0" xmlns="http://www.w3.org/2000/svg"
 width="48.000000pt" height="48.000000pt" viewBox="0 0 48.000000 48.000000"
 preserveAspectRatio="xMidYMid meet">

<g transform="translate(0.000000,48.000000) scale(0.100000,-0.100000)"
fill="#000000" stroke="none">
<path d="M208 309 c-29 -16 -21 -31 11 -24 36 8 49 -10 21 -27 -26 -16 -25
-24 1 -31 37 -10 16 -32 -27 -29 l-39 2 24 -20 c29 -25 43 -25 72 -1 20 16 22
23 13 39 -7 10 -9 31 -6 47 8 43 -31 67 -70 44z"/>
</g>
</svg>
