<?xml version="1.0" standalone="no"?>
<!DOCTYPE svg PUBLIC "-//W3C//DTD SVG 20010904//EN"
 "http://www.w3.org/TR/2001/REC-SVG-20010904/DTD/svg10.dtd">
<svg version="1.0" xmlns="http://www.w3.org/2000/svg"
 width="48.000000pt" height="48.000000pt" viewBox="0 0 48.000000 48.000000"
 preserveAspectRatio="xMidYMid meet">

<g transform="translate(0.000000,48.000000) scale(0.100000,-0.100000)"
fill="#000000" stroke="none">
<path d="M202 266 c-17 -30 -32 -57 -32 -60 0 -3 14 -6 31 -6 22 0 32 -5 36
-20 7 -26 33 -26 33 -1 0 11 6 22 13 25 10 5 10 7 0 12 -8 3 -13 25 -13 55 0
68 -25 67 -68 -5z m30 -38 c-21 -21 -32 -3 -15 22 16 22 18 23 21 6 2 -10 -1
-23 -6 -28z"/>
</g>
</svg>
