<?xml version="1.0" standalone="no"?>
<!DOCTYPE svg PUBLIC "-//W3C//DTD SVG 20010904//EN"
 "http://www.w3.org/TR/2001/REC-SVG-20010904/DTD/svg10.dtd">
<svg version="1.0" xmlns="http://www.w3.org/2000/svg"
 width="55.000000pt" height="55.000000pt" viewBox="0 0 292.000000 292.000000"
 preserveAspectRatio="xMidYMid meet">

<g transform="translate(0.000000,292.000000) scale(0.100000,-0.100000)"
fill="#FF0000" stroke="none">
<path d="M0 1460 l0 -1460 1458 2 1457 3 3 1458 2 1457 -1460 0 -1460 0 0
-1460z m1845 722 c283 -100 360 -131 363 -146 2 -10 0 -22 -5 -27 -12 -12
-710 -259 -733 -259 -17 0 -624 211 -707 245 -39 17 -45 50 -10 65 61 27 695
249 712 249 11 1 182 -56 380 -127z m365 -302 l0 -80 -40 0 -40 0 0 68 c0 62
2 70 23 80 52 25 57 19 57 -68z m-955 -100 c108 -38 205 -70 215 -70 10 0 107
32 215 70 108 39 199 70 201 70 2 0 4 -49 4 -109 0 -130 -8 -145 -103 -190
-91 -43 -194 -63 -319 -62 -178 2 -303 36 -387 107 l-31 26 0 114 c0 63 2 114
4 114 2 0 93 -31 201 -70z m955 -20 c24 -24 25 -47 3 -72 -32 -36 -103 -14
-103 33 0 25 35 59 60 59 11 0 29 -9 40 -20z m-19 -116 c22 3 39 3 39 -1 1 -5
12 -57 25 -117 13 -61 22 -114 19 -118 -7 -10 -201 -11 -208 0 -2 4 2 37 9 72
7 36 18 91 25 122 11 54 13 57 32 47 12 -6 38 -8 59 -5z m-1163 -44 l22 -30
-24 -47 c-28 -55 -56 -146 -56 -180 0 -22 3 -23 73 -23 l74 0 16 81 c9 45 20
86 25 91 14 14 73 -12 68 -31 -18 -60 -27 -113 -22 -126 4 -12 26 -15 116 -15
l110 0 0 60 0 60 40 0 40 0 0 -60 0 -60 115 0 c103 0 115 2 115 18 0 16 -16
90 -26 123 -3 12 5 20 28 28 43 15 43 15 74 -146 4 -21 10 -23 79 -23 65 0 75
2 75 18 0 35 -32 138 -56 182 -24 43 -25 45 -7 77 10 18 21 33 25 33 13 0 76
-124 94 -185 28 -93 25 -241 -5 -333 -79 -242 -299 -402 -551 -402 -391 0
-668 377 -551 750 18 55 75 170 84 170 2 0 13 -13 25 -30z"/>
<path d="M970 1226 c0 -41 36 -144 70 -200 l32 -53 54 15 c30 9 54 19 54 23 0
5 -11 42 -25 83 -14 41 -25 86 -25 99 0 52 -7 57 -86 57 -72 0 -74 -1 -74 -24z"/>
<path d="M1204 1208 c7 -45 41 -154 54 -175 6 -9 29 -11 87 -5 l80 7 3 108 3
107 -117 0 -117 0 7 -42z"/>
<path d="M1510 1141 l0 -108 78 -6 c63 -4 79 -2 89 11 20 24 50 112 58 165 l7
47 -116 0 -116 0 0 -109z"/>
<path d="M1816 1233 c-2 -10 -8 -38 -11 -63 -4 -25 -18 -73 -30 -106 l-23 -61
54 -13 c43 -10 56 -11 68 0 22 17 65 108 81 171 24 90 25 89 -59 89 -63 0 -75
-3 -80 -17z"/>
<path d="M1338 953 c-10 -2 -18 -8 -18 -12 0 -3 25 -31 55 -61 l55 -54 0 67 0
67 -37 -1 c-21 -1 -46 -3 -55 -6z"/>
<path d="M1510 894 l0 -69 57 57 c31 32 55 60 51 63 -3 3 -28 8 -57 12 l-51 6
0 -69z"/>
<path d="M1657 868 c-46 -55 -54 -68 -35 -63 63 20 183 94 171 106 -4 4 -24
11 -43 17 -35 9 -36 9 -93 -60z"/>
<path d="M1163 923 c-13 -2 -23 -8 -23 -13 0 -17 117 -86 179 -105 21 -6 16 2
-27 51 -29 32 -52 62 -52 66 0 8 -37 9 -77 1z"/>
</g>
</svg>
