<?xml version="1.0" standalone="no"?>
<!DOCTYPE svg PUBLIC "-//W3C//DTD SVG 20010904//EN"
 "http://www.w3.org/TR/2001/REC-SVG-20010904/DTD/svg10.dtd">
<svg version="1.0" xmlns="http://www.w3.org/2000/svg"
 width="55.000000pt" height="55.000000pt" viewBox="0 0 292.000000 292.000000"
 preserveAspectRatio="xMidYMid meet">

<g transform="translate(0.000000,292.000000) scale(0.100000,-0.100000)"
fill="#FF0000" stroke="none">
<path d="M0 1460 l0 -1460 1458 2 1457 3 3 1458 2 1457 -1460 0 -1460 0 0
-1460z m1671 807 c67 -32 132 -99 162 -165 18 -39 22 -71 25 -194 l4 -148 202
-1 c253 -2 298 -5 357 -24 65 -22 141 -93 176 -163 l28 -57 0 -270 c0 -255 -1
-273 -21 -316 -45 -96 -133 -168 -233 -190 l-53 -11 6 -77 c6 -69 5 -80 -14
-103 -11 -15 -34 -29 -50 -33 -64 -14 -202 78 -256 171 l-25 43 -202 3 c-194
3 -204 4 -258 29 -68 32 -120 83 -156 152 -26 49 -28 61 -31 205 l-4 152 -156
0 -157 0 -30 -51 c-36 -61 -91 -109 -165 -143 -70 -33 -83 -32 -122 3 -30 26
-32 34 -30 81 1 29 4 65 7 81 5 25 2 29 -22 34 -72 15 -105 28 -149 58 -56 39
-109 111 -125 170 -13 50 -13 519 1 567 30 105 124 192 237 219 21 5 254 9
518 8 l480 -2 56 -28z"/>
<path d="M595 2181 c-53 -25 -101 -76 -120 -130 -19 -54 -22 -461 -4 -522 26
-85 126 -159 217 -159 77 0 83 -8 81 -111 -1 -49 1 -92 4 -95 8 -9 66 29 99
63 15 15 39 53 55 83 l28 55 186 3 186 2 5 78 c6 102 35 162 78 162 45 0 56
-29 33 -88 -16 -41 -18 -79 -18 -287 0 -228 1 -242 22 -281 25 -47 73 -91 120
-111 24 -9 88 -13 238 -13 123 0 214 -4 226 -10 10 -6 26 -27 34 -47 9 -20 27
-52 41 -70 25 -33 94 -83 114 -83 7 0 9 29 4 88 -8 106 -2 113 91 123 78 8
145 45 181 99 36 54 47 156 41 372 -4 168 -6 181 -31 233 -15 30 -40 64 -56
75 -66 47 -93 50 -432 50 -201 0 -326 4 -339 10 -12 7 -19 21 -19 41 0 32 27
49 76 49 l25 0 -3 143 c-3 140 -4 145 -33 192 -22 36 -45 57 -84 77 l-53 28
-477 0 c-442 0 -479 -2 -516 -19z m515 -70 c5 -11 10 -36 10 -55 l0 -36 90 1
c97 1 120 -8 120 -46 0 -28 -16 -42 -54 -47 -25 -3 -31 -11 -51 -65 -12 -34
-37 -85 -55 -113 l-34 -52 25 -19 c13 -11 54 -40 92 -65 57 -39 67 -50 67 -74
0 -27 -22 -50 -47 -50 -5 0 -52 31 -106 69 l-96 69 -35 -27 c-19 -15 -64 -47
-100 -70 -69 -45 -99 -48 -111 -10 -11 32 3 53 58 87 28 18 68 46 87 62 l35
28 -23 39 c-48 80 -57 103 -46 121 26 42 88 15 115 -49 6 -17 16 -28 22 -26
25 8 83 149 60 146 -5 -1 -72 -1 -150 0 -114 1 -145 4 -157 17 -20 20 -20 38
0 58 12 12 37 16 105 16 l89 0 0 33 c0 18 7 43 16 55 19 27 60 29 74 3z m458
-429 c6 -56 -71 -70 -84 -15 -5 20 -2 31 15 44 31 26 65 11 69 -29z m464 -199
c9 -10 44 -112 79 -226 68 -226 69 -234 11 -251 -39 -11 -58 2 -66 48 -9 48
-26 58 -92 54 l-57 -3 -14 -48 c-16 -56 -29 -63 -78 -47 -28 9 -35 17 -35 37
0 21 44 175 111 391 6 18 17 39 26 47 21 21 96 20 115 -2z"/>
<path d="M1956 1284 c-10 -38 -19 -73 -20 -79 0 -5 16 -11 37 -12 44 -1 45 4
19 96 l-18 64 -18 -69z"/>
</g>
</svg>
