<?xml version="1.0" standalone="no"?>
<!DOCTYPE svg PUBLIC "-//W3C//DTD SVG 20010904//EN"
 "http://www.w3.org/TR/2001/REC-SVG-20010904/DTD/svg10.dtd">
<svg version="1.0" xmlns="http://www.w3.org/2000/svg"
 width="55.000000pt" height="55.000000pt" viewBox="0 0 292.000000 292.000000"
 preserveAspectRatio="xMidYMid meet">

<g transform="translate(0.000000,292.000000) scale(0.100000,-0.100000)"
fill="#FF0000" stroke="none">
<path d="M0 1460 l0 -1460 1458 2 1457 3 3 1458 2 1457 -1460 0 -1460 0 0
-1460z m1015 815 c0 -18 -8 -20 -90 -23 -134 -4 -125 22 -125 -362 0 -175 3
-325 6 -334 6 -14 71 -16 635 -16 l629 0 0 345 c0 330 -1 345 -19 355 -13 6
-184 10 -488 10 -475 0 -499 2 -486 36 4 12 88 14 493 14 l488 0 32 -26 31
-27 0 -391 c0 -215 0 -476 0 -580 0 -144 -3 -191 -12 -197 -33 -20 -39 10 -39
207 l0 194 -629 0 c-564 0 -629 -2 -635 -16 -3 -9 -6 -158 -6 -333 0 -270 2
-320 16 -339 l15 -22 603 0 c466 0 606 3 619 13 13 10 17 33 19 117 3 100 4
105 26 108 22 3 22 2 22 -116 l0 -120 -31 -26 -31 -26 -619 0 c-406 0 -627 4
-640 10 -49 27 -48 18 -48 779 0 520 3 718 11 737 20 43 53 54 158 51 88 -2
95 -4 95 -22z m-37 -267 c11 -29 27 -78 37 -108 10 -30 20 -58 24 -62 4 -4 24
44 45 107 30 92 41 115 56 115 10 0 22 -5 25 -10 7 -11 -81 -286 -98 -307 -11
-15 -43 -17 -52 -3 -16 26 -105 302 -100 310 4 6 15 10 25 10 13 0 24 -15 38
-52z m320 33 c4 -11 6 -85 4 -166 -3 -144 -3 -146 -25 -143 -21 3 -22 7 -25
153 -1 82 0 155 2 162 8 20 36 16 44 -6z m278 3 c20 -10 34 -24 34 -35 0 -28
-18 -32 -56 -14 -25 12 -42 14 -62 7 -33 -10 -43 -49 -15 -58 53 -18 124 -58
134 -75 37 -70 -14 -139 -102 -139 -60 0 -119 30 -119 61 0 29 26 34 56 10 32
-25 86 -27 108 -5 33 32 13 57 -67 85 -71 25 -100 73 -75 125 25 53 98 69 164
38z m273 3 c15 -19 111 -275 111 -298 0 -32 -40 -24 -53 11 -11 29 -13 30 -79
30 -65 0 -68 -1 -83 -30 -18 -35 -55 -42 -55 -10 0 22 97 277 113 298 12 16
32 15 46 -1z m-535 -617 l26 -10 0 -288 c0 -211 -3 -291 -12 -300 -17 -17
-429 -17 -446 0 -9 9 -12 89 -12 300 l0 289 23 9 c30 12 389 12 421 0z m686
-55 c15 -18 5 -32 -25 -35 -11 -1 -138 -2 -282 -1 -248 1 -263 2 -263 19 0 10
3 22 7 25 3 4 129 7 278 7 233 0 274 -2 285 -15z m-375 -130 c0 -18 -8 -20
-97 -23 -90 -2 -98 -1 -98 16 0 30 9 33 105 30 82 -3 90 -5 90 -23z m380 0 c0
-18 -8 -20 -97 -23 -90 -2 -98 -1 -98 16 0 30 9 33 105 30 82 -3 90 -5 90 -23z
m-381 -105 c5 -5 6 -16 2 -25 -5 -13 -21 -15 -98 -13 -87 3 -93 4 -96 25 -2
14 3 23 15 25 31 6 168 -3 177 -12z m381 -16 c0 -17 -9 -19 -95 -19 -90 0 -95
1 -98 22 -3 21 1 22 75 25 92 4 118 -3 118 -28z m-155 -99 c10 -12 10 -18 0
-30 -11 -13 -44 -15 -214 -13 -187 3 -201 4 -204 22 -2 10 2 22 10 27 7 5 99
9 204 9 158 0 194 -3 204 -15z m5 -130 c0 -19 -8 -20 -212 -23 -202 -2 -213
-1 -213 16 0 10 3 22 7 26 4 3 99 5 212 4 198 -3 206 -4 206 -23z"/>
<path d="M1802 1910 l-21 -60 44 0 c25 0 45 1 45 3 0 2 -10 29 -23 60 l-23 57
-22 -60z"/>
<path d="M920 1125 l0 -255 185 0 185 0 0 255 0 255 -185 0 -185 0 0 -255z
m295 195 c46 -44 55 -81 55 -218 0 -178 -26 -212 -165 -212 -139 0 -165 33
-164 211 0 135 9 177 47 214 38 39 58 45 129 42 56 -3 67 -7 98 -37z"/>
<path d="M1048 1294 c-27 -14 -54 -51 -45 -60 2 -3 12 7 21 21 21 32 33 32 72
-6 40 -39 107 -64 112 -42 7 30 -9 64 -41 83 -38 23 -81 25 -119 4z"/>
<path d="M1025 1168 c-32 -38 -28 -71 16 -110 20 -19 40 -28 64 -28 41 0 90
40 99 82 5 24 2 27 -27 33 -17 4 -51 18 -74 31 -23 13 -44 24 -46 24 -3 0 -17
-14 -32 -32z"/>
<path d="M1000 991 c0 -33 28 -45 107 -46 63 0 77 3 89 19 27 38 17 46 -28 26
-24 -11 -52 -20 -63 -20 -11 0 -39 9 -62 20 -41 18 -43 18 -43 1z"/>
</g>
</svg>
